ModelForces
version=1
nRows=4
nColumns=154
inDegrees=no

This file contains the forces exerted on a model during a simulation.

A force is a generalized force, meaning that it can be either a force (N) or a torque (Nm).

Units are S.I. units (second, meters, Newtons, ...)
Angles are in degrees.

endheader
time	glut_med1_r	glut_med2_r	glut_med3_r	glut_min1_r	glut_min2_r	glut_min3_r	semimem_r	semiten_r	bifemlh_r	bifemsh_r	sar_r	add_long_r	add_brev_r	add_mag1_r	add_mag2_r	add_mag3_r	tfl_r	pect_r	grac_r	glut_max1_r	glut_max2_r	glut_max3_r	iliacus_r	psoas_r	quad_fem_r	gem_r	peri_r	rect_fem_r	vas_med_r	vas_int_r	vas_lat_r	med_gas_r	lat_gas_r	soleus_r	tib_post_r	flex_dig_r	flex_hal_r	tib_ant_r	per_brev_r	per_long_r	per_tert_r	ext_dig_r	ext_hal_r	glut_med1_l	glut_med2_l	glut_med3_l	glut_min1_l	glut_min2_l	glut_min3_l	semimem_l	semiten_l	bifemlh_l	bifemsh_l	sar_l	add_long_l	add_brev_l	add_mag1_l	add_mag2_l	add_mag3_l	tfl_l	pect_l	grac_l	glut_max1_l	glut_max2_l	glut_max3_l	iliacus_l	psoas_l	quad_fem_l	gem_l	peri_l	rect_fem_l	vas_med_l	vas_int_l	vas_lat_l	med_gas_l	lat_gas_l	soleus_l	tib_post_l	flex_dig_l	flex_hal_l	tib_ant_l	per_brev_l	per_long_l	per_tert_l	ext_dig_l	ext_hal_l	ercspn_r	ercspn_l	intobl_r	intobl_l	extobl_r	extobl_l	contactForce_femur_lat_meniscii_l.femur_lat_l.force.X	contactForce_femur_lat_meniscii_l.femur_lat_l.force.Y	contactForce_femur_lat_meniscii_l.femur_lat_l.force.Z	contactForce_femur_lat_meniscii_l.femur_lat_l.torque.X	contactForce_femur_lat_meniscii_l.femur_lat_l.torque.Y	contactForce_femur_lat_meniscii_l.femur_lat_l.torque.Z	contactForce_femur_lat_meniscii_l.meniscus_lat_l.force.X	contactForce_femur_lat_meniscii_l.meniscus_lat_l.force.Y	contactForce_femur_lat_meniscii_l.meniscus_lat_l.force.Z	contactForce_femur_lat_meniscii_l.meniscus_lat_l.torque.X	contactForce_femur_lat_meniscii_l.meniscus_lat_l.torque.Y	contactForce_femur_lat_meniscii_l.meniscus_lat_l.torque.Z	contactForce_femur_med_meniscii_l.femur_med_l.force.X	contactForce_femur_med_meniscii_l.femur_med_l.force.Y	contactForce_femur_med_meniscii_l.femur_med_l.force.Z	contactForce_femur_med_meniscii_l.femur_med_l.torque.X	contactForce_femur_med_meniscii_l.femur_med_l.torque.Y	contactForce_femur_med_meniscii_l.femur_med_l.torque.Z	contactForce_femur_med_meniscii_l.meniscus_med_l.force.X	contactForce_femur_med_meniscii_l.meniscus_med_l.force.Y	contactForce_femur_med_meniscii_l.meniscus_med_l.force.Z	contactForce_femur_med_meniscii_l.meniscus_med_l.torque.X	contactForce_femur_med_meniscii_l.meniscus_med_l.torque.Y	contactForce_femur_med_meniscii_l.meniscus_med_l.torque.Z	contactForce_femur_lat_meniscii_r.femur_lat_r.force.X	contactForce_femur_lat_meniscii_r.femur_lat_r.force.Y	contactForce_femur_lat_meniscii_r.femur_lat_r.force.Z	contactForce_femur_lat_meniscii_r.femur_lat_r.torque.X	contactForce_femur_lat_meniscii_r.femur_lat_r.torque.Y	contactForce_femur_lat_meniscii_r.femur_lat_r.torque.Z	contactForce_femur_lat_meniscii_r.meniscus_lat_r.force.X	contactForce_femur_lat_meniscii_r.meniscus_lat_r.force.Y	contactForce_femur_lat_meniscii_r.meniscus_lat_r.force.Z	contactForce_femur_lat_meniscii_r.meniscus_lat_r.torque.X	contactForce_femur_lat_meniscii_r.meniscus_lat_r.torque.Y	contactForce_femur_lat_meniscii_r.meniscus_lat_r.torque.Z	contactForce_femur_med_meniscii_r.femur_med_r.force.X	contactForce_femur_med_meniscii_r.femur_med_r.force.Y	contactForce_femur_med_meniscii_r.femur_med_r.force.Z	contactForce_femur_med_meniscii_r.femur_med_r.torque.X	contactForce_femur_med_meniscii_r.femur_med_r.torque.Y	contactForce_femur_med_meniscii_r.femur_med_r.torque.Z	contactForce_femur_med_meniscii_r.meniscus_med_r.force.X	contactForce_femur_med_meniscii_r.meniscus_med_r.force.Y	contactForce_femur_med_meniscii_r.meniscus_med_r.force.Z	contactForce_femur_med_meniscii_r.meniscus_med_r.torque.X	contactForce_femur_med_meniscii_r.meniscus_med_r.torque.Y	contactForce_femur_med_meniscii_r.meniscus_med_r.torque.Z	aACL_R	pACL_R	aPCL_R	pPCL_R	aMCL_R	aLCL_R	aPCL_L	pPCL_L	aMCL_L	aLCL_L	ground_prescribedForce_fx	ground_prescribedForce_fy	ground_prescribedForce_fz
      0.45604789	      7.63443985	      5.72533362	      6.12928733	      2.68570408	      3.20790223	      3.22925133	      5.52965141	      3.83400790	      5.76223786	      6.17732406	      1.51113780	      5.67300157	      4.18237079	      2.94939277	      2.47994912	      4.03468790	      5.34678708	      2.26139538	      1.51959196	      3.69448907	      5.61456053	      4.19193370	     22.75563832	     13.08835013	      3.66398341	      2.87178132	      4.15959543	     10.87893090	      8.53117927	      8.78956168	     11.45502854	      1.72323848	      1.10909534	      7.50150765	     10.94593680	      2.03147750	      2.42885009	     17.17057518	      3.51113663	      6.96355527	     12.63674489	     11.15731119	      2.23375481	     10.10612753	      5.74986733	      5.33446405	      6.11842098	      5.79786143	      3.71435873	     10.50273219	      4.46936531	      7.18976531	      8.34845499	      1.71238198	      5.37055111	      3.70245045	      2.17269280	      1.96140518	      3.33138012	      5.99888136	      2.19488424	      1.61274508	      3.22302679	      4.72625493	      2.94610528	     26.79457652	     16.19131300	      2.29346575	      1.03394957	      2.71571879	     10.33394864	      5.41398778	      5.92673886	      6.21332412	      4.91085627	      2.33577034	      6.04478219	     12.12946389	      1.78523265	      2.97396807	     21.75248247	      3.21420935	      6.59523733	     13.91575890	     14.45662195	      2.86108190	     25.25891534	     25.25891534	      9.09909379	      9.09909379	     26.89362034	     26.89362034	      4.10754966	      9.35457531	     -3.51969132	      1.57138246	     -0.07370801	      1.63723894	     -4.10754966	     -9.35457531	      3.51969132	     -0.36303145	      0.12799384	     -0.08278938	     -3.63842702	     14.05811885	     -1.41504859	      0.20658066	     -0.06761399	     -1.19810381	      3.63842702	    -14.05811885	      1.41504859	      0.11791430	      0.00657312	     -0.24267436	      0.00000000	      0.00000000	      0.00000000	      0.00000000	      0.00000000	      0.00000000	      0.00000000	      0.00000000	      0.00000000	      0.00000000	      0.00000000	      0.00000000	     77.35507232	     79.61347078	      7.06179488	     -1.10966095	     -1.73844542	     31.81018800	    -77.35507232	    -79.61347078	     -7.06179488	     -1.23429109	      1.34512390	     -1.70024084	      0.00000000	      0.00000000	     81.48687674	      0.00000000	      0.00000000	      0.00000000	      0.00000000	      0.00000000	      0.00000000	      5.45854746	      0.00000000	     91.20957732	      0.00000000
      0.45666991	      7.63372985	      5.72484468	      6.12875740	      2.68548445	      3.20766462	      3.22895163	      5.52209974	      3.83158527	      5.75618715	      6.17214547	      1.51093780	      5.67251145	      4.18203188	      2.94914273	      2.47973386	      4.03430006	      5.33844344	      2.26120928	      1.51934402	      3.69417380	      5.61407995	      4.19156832	     22.75475158	     13.08735254	      3.66367726	      2.87163791	      4.15903068	     10.87510625	      8.53154962	      8.79038849	     11.46361145	      1.72102579	      1.10681918	      7.50483473	     10.95936037	      2.03686215	      2.42558139	     17.17742307	      3.51392329	      6.96965804	     12.64195793	     11.14985966	      2.23629899	     10.10020740	      5.74964529	      5.33580464	      5.91256636	      5.79853285	      3.71211720	     10.47872257	      4.46064563	      7.18279942	      8.33608102	      1.71109936	      5.37091654	      3.70423772	      2.17473088	      1.96300716	      3.33419189	      6.00101906	      2.19474030	      1.61112023	      3.22415096	      4.72877019	      2.94950836	     26.79468193	     16.18810730	      2.29517862	      1.03489140	      2.71772680	     10.34998108	      5.42710750	      5.94293258	      6.23055658	      4.90540189	      2.33764752	      6.04452633	     12.18689569	      1.79239972	      2.96632238	     21.76124085	      3.21148528	      6.59089407	     13.91241204	     14.44966513	      2.86557120	     25.25684506	     25.25684506	      9.09828165	      9.09828165	     26.89289082	     26.89289082	      4.10760694	      9.36695362	     -3.51520943	      1.56911329	     -0.07361931	      1.63666246	     -4.10760694	     -9.36695362	      3.51520943	     -0.36310868	      0.12793047	     -0.08269444	     -3.63517548	     14.06139103	     -1.40580268	      0.20194824	     -0.06799641	     -1.19729226	      3.63517548	    -14.06139103	      1.40580268	      0.11829936	      0.00679908	     -0.24293529	      0.00000000	      0.00000000	      0.00000000	      0.00000000	      0.00000000	      0.00000000	      0.00000000	      0.00000000	      0.00000000	      0.00000000	      0.00000000	      0.00000000	     77.39110186	     79.64420002	      7.06431808	     -1.11037980	     -1.73846821	     31.82449633	    -77.39110186	    -79.64420002	     -7.06431808	     -1.23379720	      1.34438369	     -1.70057143	      0.00000000	      0.00000000	     81.52334442	      0.00000000	      0.00000000	      0.00000000	      0.00000000	      0.00000000	      0.00000000	      5.49287901	      0.00000000	     91.33398249	      0.00000000
      0.45966271	      7.63039232	      5.72254626	      6.12626627	      2.68445202	      3.20654763	      3.22754279	      5.48816001	      3.82096052	      5.72845580	      6.14859159	      1.50995951	      5.67020746	      4.18043868	      2.94796733	      2.47872200	      4.03247693	      5.29889924	      2.26033442	      1.51826276	      3.69269179	      5.61182087	      4.18985074	     22.75058322	     13.08266319	      3.66223810	      2.87096382	      4.15637485	     10.85843250	      8.53782060	      8.79756068	     11.50973004	      1.71096600	      1.09692610	      7.52135074	     11.02026179	      2.06457888	      2.41037425	     17.20830691	      3.52852988	      7.00062031	     12.66712709	     11.10746676	      2.24737744	     10.06230150	      5.74841144	      5.34918045	      2.48868796	      5.79693995	      3.70130636	     10.36316053	      4.41927108	      7.14856110	      8.27755590	      1.70482192	      5.37421112	      3.71053245	      2.18698216	      1.97160473	      3.34782583	      6.01183460	      2.19500877	      1.60337472	      3.23058045	      4.74230834	      2.96811733	     26.79340957	     16.17182142	      2.31485548	      1.04320196	      2.72948199	     10.42631755	      5.48902040	      6.01910423	      6.31055231	      4.87210516	      2.34328560	      6.03845649	     12.44821540	      1.83352841	      2.93360426	     21.80299854	      3.20317835	      6.57493395	     13.90319001	     14.39439171	      2.87842375	     25.24711291	     25.24711291	      9.09446393	      9.09446393	     26.88946150	     26.88946150	      4.09511468	      9.40080473	     -3.49947980	      1.56045625	     -0.07318138	      1.62878539	     -4.09511468	     -9.40080473	      3.49947980	     -0.36306765	      0.12740038	     -0.08194240	     -3.62894747	     14.06369484	     -1.36889609	      0.18327269	     -0.06989116	     -1.19767022	      3.62894747	    -14.06369484	      1.36889609	      0.11971804	      0.00780381	     -0.24342899	      0.00000000	      0.00000000	      0.00000000	      0.00000000	      0.00000000	      0.00000000	      0.00000000	      0.00000000	      0.00000000	      0.00000000	      0.00000000	      0.00000000	     77.48360748	     79.96390351	      7.04399750	     -1.09664513	     -1.73684003	     31.85808416	    -77.48360748	    -79.96390351	     -7.04399750	     -1.23534003	      1.33960762	     -1.69696090	      0.00000000	      0.00000000	     81.72549839	      0.00000000	      0.00000000	      0.00000000	      0.00000000	      0.00000000	      0.00000000	      5.62372936	      0.00000000	     91.93254177	      0.00000000
      0.46028327	      7.62971626	      5.72208068	      6.12576166	      2.68424288	      3.20632137	      3.22725741	      5.48158208	      3.81894448	      5.72292127	      6.14380757	      1.50977183	      5.66974075	      4.18011594	      2.94772924	      2.47851703	      4.03210763	      5.29081420	      2.26015721	      1.51806860	      3.69239158	      5.61136325	      4.18950282	     22.74973885	     13.08171331	      3.66194658	      2.87082727	      4.15583666	     10.85526267	      8.53990277	      8.79950466	     11.52000387	      1.70873444	      1.09502726	      7.52475247	     11.03207895	      2.07067441	      2.40731117	     17.21429052	      3.53182605	      7.00739832	     12.67249863	     11.09740040	      2.24947210	     10.05314797	      5.74819305	      5.35277950	      0.17063926	      5.79616552	      3.69909388	     10.33906839	      4.41075219	      7.14123889	      8.26523584	      1.70353746	      5.37504187	      3.71562010	      2.18972773	      1.97347411	      3.35066609	      6.01412456	      2.19517037	      1.60175606	      3.23203591	      4.74528133	      2.97221412	     26.79283968	     16.16827121	      2.32037251	      1.04543636	      2.73227643	     10.44183678	      5.50144160	      6.03429774	      6.32627740	      4.86376512	      2.34367920	      6.03616057	     12.49901441	      1.84340095	      2.92769412	     21.81156806	      3.20245474	      6.57271020	     13.90311810	     14.37824400	      2.87945756	     25.24514148	     25.24514148	      9.09369059	      9.09369059	     26.88876685	     26.88876685	      4.09193609	      9.40045316	     -3.50064665	      1.56048607	     -0.07311680	      1.62698070	     -4.09193609	     -9.40045316	      3.50064665	     -0.36305650	      0.12729367	     -0.08181121	     -3.63014034	     14.06326671	     -1.36241561	      0.17993011	     -0.07033204	     -1.19881503	      3.63014034	    -14.06326671	      1.36241561	      0.11995856	      0.00802327	     -0.24340480	      0.00000000	      0.00000000	      0.00000000	      0.00000000	      0.00000000	      0.00000000	      0.00000000	      0.00000000	      0.00000000	      0.00000000	      0.00000000	      0.00000000	     77.48243722	     80.06924336	      7.01940220	     -1.08460270	     -1.73610769	     31.85625641	    -77.48243722	    -80.06924336	     -7.01940220	     -1.23684858	      1.33842399	     -1.69500757	      0.00000000	      0.00000000	     81.77104112	      0.00000000	      0.00000000	      0.00000000	      0.00000000	      0.00000000	      0.00000000	      5.63481776	      0.00000000	     92.05665427	      0.00000000
